<mxfile host="Electron" modified="2023-06-30T02:08:01.286Z" agent="Mozilla/5.0 (Macintosh; Intel Mac OS X 10_15_7) AppleWebKit/537.36 (KHTML, like Gecko) draw.io/21.1.2 Chrome/106.0.5249.199 Electron/21.4.3 Safari/537.36" etag="D17XQ-QpOeuy_LcBNbaL" version="21.1.2" type="device" pages="2">
  <diagram name="Page-1" id="aaaa8250-4180-3840-79b5-4cada1eebb92">
    <mxGraphModel dx="1893" dy="1012" grid="1" gridSize="10" guides="1" tooltips="1" connect="1" arrows="1" fold="1" page="1" pageScale="1" pageWidth="1654" pageHeight="1169" background="none" math="0" shadow="0">
      <root>
        <mxCell id="0" />
        <mxCell id="1" parent="0" />
        <mxCell id="H1EW1uGaFYr-aLYh5dV3-1" value="Region(us-east-1)" style="points=[[0,0],[0.25,0],[0.5,0],[0.75,0],[1,0],[1,0.25],[1,0.5],[1,0.75],[1,1],[0.75,1],[0.5,1],[0.25,1],[0,1],[0,0.75],[0,0.5],[0,0.25]];outlineConnect=0;gradientColor=none;html=1;whiteSpace=wrap;fontSize=12;fontStyle=0;container=1;pointerEvents=0;collapsible=0;recursiveResize=0;shape=mxgraph.aws4.group;grIcon=mxgraph.aws4.group_region;strokeColor=#147EBA;fillColor=none;verticalAlign=top;align=left;spacingLeft=30;fontColor=#147EBA;dashed=1;" parent="1" vertex="1">
          <mxGeometry x="210" y="251" width="1220" height="840" as="geometry" />
        </mxCell>
        <mxCell id="H1EW1uGaFYr-aLYh5dV3-2" value="VPC (10.1.0.0/16)" style="points=[[0,0],[0.25,0],[0.5,0],[0.75,0],[1,0],[1,0.25],[1,0.5],[1,0.75],[1,1],[0.75,1],[0.5,1],[0.25,1],[0,1],[0,0.75],[0,0.5],[0,0.25]];outlineConnect=0;gradientColor=none;html=1;whiteSpace=wrap;fontSize=12;fontStyle=0;container=1;pointerEvents=0;collapsible=0;recursiveResize=0;shape=mxgraph.aws4.group;grIcon=mxgraph.aws4.group_vpc;strokeColor=#248814;fillColor=none;verticalAlign=top;align=left;spacingLeft=30;fontColor=#AAB7B8;dashed=0;" parent="H1EW1uGaFYr-aLYh5dV3-1" vertex="1">
          <mxGeometry x="70" y="100" width="800" height="670" as="geometry" />
        </mxCell>
        <mxCell id="H1EW1uGaFYr-aLYh5dV3-5" value="Private subnet 1 (10.1.20.0/24)" style="points=[[0,0],[0.25,0],[0.5,0],[0.75,0],[1,0],[1,0.25],[1,0.5],[1,0.75],[1,1],[0.75,1],[0.5,1],[0.25,1],[0,1],[0,0.75],[0,0.5],[0,0.25]];outlineConnect=0;gradientColor=none;html=1;whiteSpace=wrap;fontSize=12;fontStyle=0;container=1;pointerEvents=0;collapsible=0;recursiveResize=0;shape=mxgraph.aws4.group;grIcon=mxgraph.aws4.group_security_group;grStroke=0;strokeColor=#147EBA;fillColor=#E6F2F8;verticalAlign=top;align=left;spacingLeft=30;fontColor=#147EBA;dashed=0;" parent="H1EW1uGaFYr-aLYh5dV3-2" vertex="1">
          <mxGeometry x="45" y="350" width="290" height="290" as="geometry" />
        </mxCell>
        <mxCell id="H1EW1uGaFYr-aLYh5dV3-43" value="Master DB" style="outlineConnect=0;dashed=0;verticalLabelPosition=bottom;verticalAlign=top;align=center;html=1;shape=mxgraph.aws3.rds_db_instance;fillColor=#2E73B8;gradientColor=none;" parent="H1EW1uGaFYr-aLYh5dV3-5" vertex="1">
          <mxGeometry x="62.25" y="190" width="49.5" height="66" as="geometry" />
        </mxCell>
        <mxCell id="H1EW1uGaFYr-aLYh5dV3-8" value="Public subnet 2 (10.1.10.0/24)" style="points=[[0,0],[0.25,0],[0.5,0],[0.75,0],[1,0],[1,0.25],[1,0.5],[1,0.75],[1,1],[0.75,1],[0.5,1],[0.25,1],[0,1],[0,0.75],[0,0.5],[0,0.25]];outlineConnect=0;gradientColor=none;html=1;whiteSpace=wrap;fontSize=12;fontStyle=0;container=1;pointerEvents=0;collapsible=0;recursiveResize=0;shape=mxgraph.aws4.group;grIcon=mxgraph.aws4.group_security_group;grStroke=0;strokeColor=#248814;fillColor=#E9F3E6;verticalAlign=top;align=left;spacingLeft=30;fontColor=#248814;dashed=0;" parent="H1EW1uGaFYr-aLYh5dV3-2" vertex="1">
          <mxGeometry x="439" y="109" width="320" height="181" as="geometry" />
        </mxCell>
        <mxCell id="H1EW1uGaFYr-aLYh5dV3-31" style="rounded=0;orthogonalLoop=1;jettySize=auto;html=1;entryX=0;entryY=0.25;entryDx=0;entryDy=0;entryPerimeter=0;" parent="H1EW1uGaFYr-aLYh5dV3-2" source="H1EW1uGaFYr-aLYh5dV3-19" target="H1EW1uGaFYr-aLYh5dV3-25" edge="1">
          <mxGeometry relative="1" as="geometry">
            <Array as="points">
              <mxPoint x="400" y="129" />
            </Array>
          </mxGeometry>
        </mxCell>
        <mxCell id="H1EW1uGaFYr-aLYh5dV3-19" value="Application LB" style="sketch=0;outlineConnect=0;fontColor=#232F3E;gradientColor=none;fillColor=#4D27AA;strokeColor=none;dashed=0;verticalLabelPosition=bottom;verticalAlign=top;align=center;html=1;fontSize=12;fontStyle=0;aspect=fixed;pointerEvents=1;shape=mxgraph.aws4.application_load_balancer;" parent="H1EW1uGaFYr-aLYh5dV3-2" vertex="1">
          <mxGeometry x="350" width="51" height="51" as="geometry" />
        </mxCell>
        <mxCell id="H1EW1uGaFYr-aLYh5dV3-7" value="Public subnet 1 (10.1.11.0/24)" style="points=[[0,0],[0.25,0],[0.5,0],[0.75,0],[1,0],[1,0.25],[1,0.5],[1,0.75],[1,1],[0.75,1],[0.5,1],[0.25,1],[0,1],[0,0.75],[0,0.5],[0,0.25]];outlineConnect=0;gradientColor=none;html=1;whiteSpace=wrap;fontSize=12;fontStyle=0;container=1;pointerEvents=0;collapsible=0;recursiveResize=0;shape=mxgraph.aws4.group;grIcon=mxgraph.aws4.group_security_group;grStroke=0;strokeColor=#248814;fillColor=#E9F3E6;verticalAlign=top;align=left;spacingLeft=30;fontColor=#248814;dashed=0;" parent="H1EW1uGaFYr-aLYh5dV3-2" vertex="1">
          <mxGeometry x="39" y="109" width="290" height="181" as="geometry" />
        </mxCell>
        <mxCell id="H1EW1uGaFYr-aLYh5dV3-23" value="Auto Scaling group" style="points=[[0,0],[0.25,0],[0.5,0],[0.75,0],[1,0],[1,0.25],[1,0.5],[1,0.75],[1,1],[0.75,1],[0.5,1],[0.25,1],[0,1],[0,0.75],[0,0.5],[0,0.25]];outlineConnect=0;gradientColor=none;html=1;whiteSpace=wrap;fontSize=12;fontStyle=0;container=1;pointerEvents=0;collapsible=0;recursiveResize=0;shape=mxgraph.aws4.groupCenter;grIcon=mxgraph.aws4.group_auto_scaling_group;grStroke=1;strokeColor=#D86613;fillColor=none;verticalAlign=top;align=center;fontColor=#D86613;dashed=1;spacingTop=25;" parent="H1EW1uGaFYr-aLYh5dV3-2" vertex="1">
          <mxGeometry x="20" y="169" width="750" height="111" as="geometry" />
        </mxCell>
        <mxCell id="H1EW1uGaFYr-aLYh5dV3-46" value="" style="rounded=1;arcSize=10;dashed=1;strokeColor=#ff0000;fillColor=none;gradientColor=none;dashPattern=8 4;strokeWidth=2;" parent="H1EW1uGaFYr-aLYh5dV3-23" vertex="1">
          <mxGeometry x="70" y="27" width="590" height="81" as="geometry" />
        </mxCell>
        <mxCell id="H1EW1uGaFYr-aLYh5dV3-24" value="&amp;nbsp;&lt;span style=&quot;font-weight: 700; color: rgb(22, 25, 31); font-family: &amp;quot;Amazon Ember&amp;quot;, &amp;quot;Helvetica Neue&amp;quot;, Roboto, Arial, sans-serif; font-size: 14px; text-align: left; background-color: rgb(250, 250, 250);&quot;&gt;t3a.2xlarge&lt;/span&gt;" style="sketch=0;points=[[0,0,0],[0.25,0,0],[0.5,0,0],[0.75,0,0],[1,0,0],[0,1,0],[0.25,1,0],[0.5,1,0],[0.75,1,0],[1,1,0],[0,0.25,0],[0,0.5,0],[0,0.75,0],[1,0.25,0],[1,0.5,0],[1,0.75,0]];outlineConnect=0;fontColor=#232F3E;gradientColor=#F78E04;gradientDirection=north;fillColor=#D05C17;strokeColor=#ffffff;dashed=0;verticalLabelPosition=bottom;verticalAlign=top;align=center;html=1;fontSize=12;fontStyle=0;aspect=fixed;shape=mxgraph.aws4.resourceIcon;resIcon=mxgraph.aws4.ec2;" parent="H1EW1uGaFYr-aLYh5dV3-23" vertex="1">
          <mxGeometry x="90" y="31" width="54" height="54" as="geometry" />
        </mxCell>
        <mxCell id="H1EW1uGaFYr-aLYh5dV3-25" value="&amp;nbsp;&lt;span style=&quot;font-weight: 700; color: rgb(22, 25, 31); font-family: &amp;quot;Amazon Ember&amp;quot;, &amp;quot;Helvetica Neue&amp;quot;, Roboto, Arial, sans-serif; font-size: 14px; text-align: left; background-color: rgb(250, 250, 250);&quot;&gt;t3a.2xlarge&lt;/span&gt;" style="sketch=0;points=[[0,0,0],[0.25,0,0],[0.5,0,0],[0.75,0,0],[1,0,0],[0,1,0],[0.25,1,0],[0.5,1,0],[0.75,1,0],[1,1,0],[0,0.25,0],[0,0.5,0],[0,0.75,0],[1,0.25,0],[1,0.5,0],[1,0.75,0]];outlineConnect=0;fontColor=#232F3E;gradientColor=#F78E04;gradientDirection=north;fillColor=#D05C17;strokeColor=#ffffff;dashed=0;verticalLabelPosition=bottom;verticalAlign=top;align=center;html=1;fontSize=12;fontStyle=0;aspect=fixed;shape=mxgraph.aws4.resourceIcon;resIcon=mxgraph.aws4.ec2;" parent="H1EW1uGaFYr-aLYh5dV3-23" vertex="1">
          <mxGeometry x="580" y="29" width="54" height="54" as="geometry" />
        </mxCell>
        <mxCell id="Qzojy6YNlc8GHkLwXuoG-3" value="max: 10 instances" style="text;html=1;align=center;verticalAlign=middle;resizable=0;points=[];autosize=1;strokeColor=none;fillColor=none;" vertex="1" parent="H1EW1uGaFYr-aLYh5dV3-23">
          <mxGeometry x="400" y="81" width="120" height="30" as="geometry" />
        </mxCell>
        <mxCell id="H1EW1uGaFYr-aLYh5dV3-30" value="" style="endArrow=classic;html=1;rounded=0;entryX=1;entryY=0.5;entryDx=0;entryDy=0;entryPerimeter=0;" parent="H1EW1uGaFYr-aLYh5dV3-2" source="H1EW1uGaFYr-aLYh5dV3-19" target="H1EW1uGaFYr-aLYh5dV3-24" edge="1">
          <mxGeometry width="50" height="50" relative="1" as="geometry">
            <mxPoint x="390" y="309" as="sourcePoint" />
            <mxPoint x="440" y="259" as="targetPoint" />
            <Array as="points">
              <mxPoint x="360" y="129" />
            </Array>
          </mxGeometry>
        </mxCell>
        <mxCell id="H1EW1uGaFYr-aLYh5dV3-32" style="rounded=0;orthogonalLoop=1;jettySize=auto;html=1;" parent="H1EW1uGaFYr-aLYh5dV3-2" source="H1EW1uGaFYr-aLYh5dV3-24" target="H1EW1uGaFYr-aLYh5dV3-21" edge="1">
          <mxGeometry relative="1" as="geometry" />
        </mxCell>
        <mxCell id="H1EW1uGaFYr-aLYh5dV3-33" style="rounded=0;orthogonalLoop=1;jettySize=auto;html=1;" parent="H1EW1uGaFYr-aLYh5dV3-2" source="H1EW1uGaFYr-aLYh5dV3-25" target="H1EW1uGaFYr-aLYh5dV3-21" edge="1">
          <mxGeometry relative="1" as="geometry" />
        </mxCell>
        <mxCell id="H1EW1uGaFYr-aLYh5dV3-6" value="Private subnet 2 (10.1.21.0/24)" style="points=[[0,0],[0.25,0],[0.5,0],[0.75,0],[1,0],[1,0.25],[1,0.5],[1,0.75],[1,1],[0.75,1],[0.5,1],[0.25,1],[0,1],[0,0.75],[0,0.5],[0,0.25]];outlineConnect=0;gradientColor=none;html=1;whiteSpace=wrap;fontSize=12;fontStyle=0;container=1;pointerEvents=0;collapsible=0;recursiveResize=0;shape=mxgraph.aws4.group;grIcon=mxgraph.aws4.group_security_group;grStroke=0;strokeColor=#147EBA;fillColor=#E6F2F8;verticalAlign=top;align=left;spacingLeft=30;fontColor=#147EBA;dashed=0;" parent="H1EW1uGaFYr-aLYh5dV3-2" vertex="1">
          <mxGeometry x="445" y="350" width="315" height="290" as="geometry" />
        </mxCell>
        <mxCell id="H1EW1uGaFYr-aLYh5dV3-48" value="" style="rounded=1;arcSize=10;dashed=1;strokeColor=#ff0000;fillColor=none;gradientColor=none;dashPattern=8 4;strokeWidth=2;" parent="H1EW1uGaFYr-aLYh5dV3-6" vertex="1">
          <mxGeometry x="-370" y="179" width="605" height="102" as="geometry" />
        </mxCell>
        <mxCell id="H1EW1uGaFYr-aLYh5dV3-45" value="Read replica" style="outlineConnect=0;dashed=0;verticalLabelPosition=bottom;verticalAlign=top;align=center;html=1;shape=mxgraph.aws3.rds_db_instance_read_replica;fillColor=#2E73B8;gradientColor=none;" parent="H1EW1uGaFYr-aLYh5dV3-6" vertex="1">
          <mxGeometry x="149.5" y="190" width="49.5" height="66" as="geometry" />
        </mxCell>
        <mxCell id="Qzojy6YNlc8GHkLwXuoG-2" value="db.r3.2xlarge" style="text;html=1;align=center;verticalAlign=middle;resizable=0;points=[];autosize=1;strokeColor=none;fillColor=none;" vertex="1" parent="H1EW1uGaFYr-aLYh5dV3-6">
          <mxGeometry x="129.25" y="169" width="90" height="30" as="geometry" />
        </mxCell>
        <mxCell id="H1EW1uGaFYr-aLYh5dV3-34" style="rounded=0;orthogonalLoop=1;jettySize=auto;html=1;entryX=1;entryY=0.5;entryDx=0;entryDy=0;entryPerimeter=0;" parent="H1EW1uGaFYr-aLYh5dV3-2" source="H1EW1uGaFYr-aLYh5dV3-21" target="H1EW1uGaFYr-aLYh5dV3-27" edge="1">
          <mxGeometry relative="1" as="geometry">
            <Array as="points">
              <mxPoint x="250" y="379" />
            </Array>
          </mxGeometry>
        </mxCell>
        <mxCell id="H1EW1uGaFYr-aLYh5dV3-35" style="rounded=0;orthogonalLoop=1;jettySize=auto;html=1;entryX=0;entryY=0.5;entryDx=0;entryDy=0;entryPerimeter=0;" parent="H1EW1uGaFYr-aLYh5dV3-2" source="H1EW1uGaFYr-aLYh5dV3-21" target="H1EW1uGaFYr-aLYh5dV3-28" edge="1">
          <mxGeometry relative="1" as="geometry">
            <Array as="points">
              <mxPoint x="530" y="379" />
            </Array>
          </mxGeometry>
        </mxCell>
        <mxCell id="H1EW1uGaFYr-aLYh5dV3-21" value="Network LB" style="sketch=0;outlineConnect=0;fontColor=#232F3E;gradientColor=none;fillColor=#4D27AA;strokeColor=none;dashed=0;verticalLabelPosition=bottom;verticalAlign=top;align=center;html=1;fontSize=12;fontStyle=0;aspect=fixed;pointerEvents=1;shape=mxgraph.aws4.network_load_balancer;rotation=0;" parent="H1EW1uGaFYr-aLYh5dV3-2" vertex="1">
          <mxGeometry x="355" y="290" width="78" height="78" as="geometry" />
        </mxCell>
        <mxCell id="H1EW1uGaFYr-aLYh5dV3-26" value="Auto Scaling group" style="points=[[0,0],[0.25,0],[0.5,0],[0.75,0],[1,0],[1,0.25],[1,0.5],[1,0.75],[1,1],[0.75,1],[0.5,1],[0.25,1],[0,1],[0,0.75],[0,0.5],[0,0.25]];outlineConnect=0;gradientColor=none;html=1;whiteSpace=wrap;fontSize=12;fontStyle=0;container=1;pointerEvents=0;collapsible=0;recursiveResize=0;shape=mxgraph.aws4.groupCenter;grIcon=mxgraph.aws4.group_auto_scaling_group;grStroke=1;strokeColor=#D86613;fillColor=none;verticalAlign=top;align=center;fontColor=#D86613;dashed=1;spacingTop=25;" parent="H1EW1uGaFYr-aLYh5dV3-2" vertex="1">
          <mxGeometry x="20" y="410" width="765" height="90" as="geometry" />
        </mxCell>
        <mxCell id="H1EW1uGaFYr-aLYh5dV3-47" value="" style="rounded=1;arcSize=10;dashed=1;strokeColor=#ff0000;fillColor=none;gradientColor=none;dashPattern=8 4;strokeWidth=2;" parent="H1EW1uGaFYr-aLYh5dV3-26" vertex="1">
          <mxGeometry x="75" y="4.5" width="590" height="81" as="geometry" />
        </mxCell>
        <mxCell id="H1EW1uGaFYr-aLYh5dV3-27" value="t3a.2xlarge" style="sketch=0;points=[[0,0,0],[0.25,0,0],[0.5,0,0],[0.75,0,0],[1,0,0],[0,1,0],[0.25,1,0],[0.5,1,0],[0.75,1,0],[1,1,0],[0,0.25,0],[0,0.5,0],[0,0.75,0],[1,0.25,0],[1,0.5,0],[1,0.75,0]];outlineConnect=0;fontColor=#232F3E;gradientColor=#F78E04;gradientDirection=north;fillColor=#D05C17;strokeColor=#ffffff;dashed=0;verticalLabelPosition=bottom;verticalAlign=top;align=center;html=1;fontSize=12;fontStyle=0;aspect=fixed;shape=mxgraph.aws4.resourceIcon;resIcon=mxgraph.aws4.ec2;" parent="H1EW1uGaFYr-aLYh5dV3-26" vertex="1">
          <mxGeometry x="90" y="13" width="54" height="54" as="geometry" />
        </mxCell>
        <mxCell id="H1EW1uGaFYr-aLYh5dV3-28" value="t3a.2xlarge" style="sketch=0;points=[[0,0,0],[0.25,0,0],[0.5,0,0],[0.75,0,0],[1,0,0],[0,1,0],[0.25,1,0],[0.5,1,0],[0.75,1,0],[1,1,0],[0,0.25,0],[0,0.5,0],[0,0.75,0],[1,0.25,0],[1,0.5,0],[1,0.75,0]];outlineConnect=0;fontColor=#232F3E;gradientColor=#F78E04;gradientDirection=north;fillColor=#D05C17;strokeColor=#ffffff;dashed=0;verticalLabelPosition=bottom;verticalAlign=top;align=center;html=1;fontSize=12;fontStyle=0;aspect=fixed;shape=mxgraph.aws4.resourceIcon;resIcon=mxgraph.aws4.ec2;" parent="H1EW1uGaFYr-aLYh5dV3-26" vertex="1">
          <mxGeometry x="580" y="11" width="54" height="54" as="geometry" />
        </mxCell>
        <mxCell id="Qzojy6YNlc8GHkLwXuoG-41" value="max: 10 instances" style="text;html=1;align=center;verticalAlign=middle;resizable=0;points=[];autosize=1;strokeColor=none;fillColor=none;" vertex="1" parent="H1EW1uGaFYr-aLYh5dV3-26">
          <mxGeometry x="407" y="60" width="120" height="30" as="geometry" />
        </mxCell>
        <mxCell id="H1EW1uGaFYr-aLYh5dV3-57" value="" style="shape=flexArrow;endArrow=classic;html=1;rounded=0;entryX=0.53;entryY=-0.029;entryDx=0;entryDy=0;entryPerimeter=0;endWidth=7;endSize=4.86;" parent="H1EW1uGaFYr-aLYh5dV3-2" target="H1EW1uGaFYr-aLYh5dV3-48" edge="1">
          <mxGeometry width="50" height="50" relative="1" as="geometry">
            <mxPoint x="396" y="499" as="sourcePoint" />
            <mxPoint x="560" y="309" as="targetPoint" />
          </mxGeometry>
        </mxCell>
        <mxCell id="H1EW1uGaFYr-aLYh5dV3-10" value="S3 Website bucket" style="sketch=0;points=[[0,0,0],[0.25,0,0],[0.5,0,0],[0.75,0,0],[1,0,0],[0,1,0],[0.25,1,0],[0.5,1,0],[0.75,1,0],[1,1,0],[0,0.25,0],[0,0.5,0],[0,0.75,0],[1,0.25,0],[1,0.5,0],[1,0.75,0]];outlineConnect=0;fontColor=#232F3E;gradientColor=#60A337;gradientDirection=north;fillColor=#277116;strokeColor=#ffffff;dashed=0;verticalLabelPosition=bottom;verticalAlign=top;align=center;html=1;fontSize=12;fontStyle=0;aspect=fixed;shape=mxgraph.aws4.resourceIcon;resIcon=mxgraph.aws4.s3;" parent="H1EW1uGaFYr-aLYh5dV3-1" vertex="1">
          <mxGeometry x="950" y="149" width="78" height="78" as="geometry" />
        </mxCell>
        <mxCell id="H1EW1uGaFYr-aLYh5dV3-12" value="Certificate Management" style="sketch=0;points=[[0,0,0],[0.25,0,0],[0.5,0,0],[0.75,0,0],[1,0,0],[0,1,0],[0.25,1,0],[0.5,1,0],[0.75,1,0],[1,1,0],[0,0.25,0],[0,0.5,0],[0,0.75,0],[1,0.25,0],[1,0.5,0],[1,0.75,0]];outlineConnect=0;fontColor=#232F3E;gradientColor=#F54749;gradientDirection=north;fillColor=#C7131F;strokeColor=#ffffff;dashed=0;verticalLabelPosition=bottom;verticalAlign=top;align=center;html=1;fontSize=12;fontStyle=0;aspect=fixed;shape=mxgraph.aws4.resourceIcon;resIcon=mxgraph.aws4.certificate_manager_3;" parent="H1EW1uGaFYr-aLYh5dV3-1" vertex="1">
          <mxGeometry x="1050" y="50" width="62" height="62" as="geometry" />
        </mxCell>
        <mxCell id="H1EW1uGaFYr-aLYh5dV3-14" value="use SSL Cetificate" style="text;html=1;align=left;verticalAlign=middle;resizable=0;points=[];autosize=1;strokeColor=none;fillColor=none;" parent="H1EW1uGaFYr-aLYh5dV3-1" vertex="1">
          <mxGeometry x="1090" y="20" width="120" height="30" as="geometry" />
        </mxCell>
        <mxCell id="H1EW1uGaFYr-aLYh5dV3-51" style="rounded=0;orthogonalLoop=1;jettySize=auto;html=1;entryX=1;entryY=0.5;entryDx=0;entryDy=0;startArrow=none;startFill=0;endArrow=none;endFill=0;" parent="H1EW1uGaFYr-aLYh5dV3-1" source="H1EW1uGaFYr-aLYh5dV3-49" target="H1EW1uGaFYr-aLYh5dV3-46" edge="1">
          <mxGeometry relative="1" as="geometry" />
        </mxCell>
        <mxCell id="H1EW1uGaFYr-aLYh5dV3-49" value="web security group" style="text;html=1;align=center;verticalAlign=middle;resizable=0;points=[];autosize=1;strokeColor=none;fillColor=none;" parent="H1EW1uGaFYr-aLYh5dV3-1" vertex="1">
          <mxGeometry x="850" y="299" width="120" height="30" as="geometry" />
        </mxCell>
        <mxCell id="H1EW1uGaFYr-aLYh5dV3-52" style="rounded=0;orthogonalLoop=1;jettySize=auto;html=1;entryX=1;entryY=0.25;entryDx=0;entryDy=0;startArrow=none;startFill=0;endArrow=none;endFill=0;" parent="H1EW1uGaFYr-aLYh5dV3-1" source="H1EW1uGaFYr-aLYh5dV3-53" target="H1EW1uGaFYr-aLYh5dV3-47" edge="1">
          <mxGeometry relative="1" as="geometry">
            <mxPoint x="760" y="557" as="targetPoint" />
          </mxGeometry>
        </mxCell>
        <mxCell id="H1EW1uGaFYr-aLYh5dV3-53" value="app security group" style="text;html=1;align=center;verticalAlign=middle;resizable=0;points=[];autosize=1;strokeColor=none;fillColor=none;" parent="H1EW1uGaFYr-aLYh5dV3-1" vertex="1">
          <mxGeometry x="860" y="519" width="120" height="30" as="geometry" />
        </mxCell>
        <mxCell id="H1EW1uGaFYr-aLYh5dV3-55" style="rounded=0;orthogonalLoop=1;jettySize=auto;html=1;entryX=1;entryY=0.5;entryDx=0;entryDy=0;endArrow=none;endFill=0;" parent="H1EW1uGaFYr-aLYh5dV3-1" source="H1EW1uGaFYr-aLYh5dV3-54" target="H1EW1uGaFYr-aLYh5dV3-48" edge="1">
          <mxGeometry relative="1" as="geometry" />
        </mxCell>
        <mxCell id="H1EW1uGaFYr-aLYh5dV3-54" value="db security group" style="text;html=1;align=center;verticalAlign=middle;resizable=0;points=[];autosize=1;strokeColor=none;fillColor=none;" parent="H1EW1uGaFYr-aLYh5dV3-1" vertex="1">
          <mxGeometry x="860" y="669" width="120" height="30" as="geometry" />
        </mxCell>
        <mxCell id="H1EW1uGaFYr-aLYh5dV3-11" value="CloudFront" style="sketch=0;points=[[0,0,0],[0.25,0,0],[0.5,0,0],[0.75,0,0],[1,0,0],[0,1,0],[0.25,1,0],[0.5,1,0],[0.75,1,0],[1,1,0],[0,0.25,0],[0,0.5,0],[0,0.75,0],[1,0.25,0],[1,0.5,0],[1,0.75,0]];outlineConnect=0;fontColor=#232F3E;gradientColor=#945DF2;gradientDirection=north;fillColor=#5A30B5;strokeColor=#ffffff;dashed=0;verticalLabelPosition=bottom;verticalAlign=top;align=center;html=1;fontSize=12;fontStyle=0;aspect=fixed;shape=mxgraph.aws4.resourceIcon;resIcon=mxgraph.aws4.cloudfront;" parent="1" vertex="1">
          <mxGeometry x="1160" y="151" width="78" height="78" as="geometry" />
        </mxCell>
        <mxCell id="H1EW1uGaFYr-aLYh5dV3-13" style="edgeStyle=orthogonalEdgeStyle;rounded=0;orthogonalLoop=1;jettySize=auto;html=1;entryX=0.5;entryY=0;entryDx=0;entryDy=0;entryPerimeter=0;" parent="1" source="H1EW1uGaFYr-aLYh5dV3-11" target="H1EW1uGaFYr-aLYh5dV3-12" edge="1">
          <mxGeometry relative="1" as="geometry" />
        </mxCell>
        <mxCell id="H1EW1uGaFYr-aLYh5dV3-15" style="edgeStyle=orthogonalEdgeStyle;rounded=0;orthogonalLoop=1;jettySize=auto;html=1;entryX=0.5;entryY=0;entryDx=0;entryDy=0;entryPerimeter=0;" parent="1" source="H1EW1uGaFYr-aLYh5dV3-11" target="H1EW1uGaFYr-aLYh5dV3-10" edge="1">
          <mxGeometry relative="1" as="geometry" />
        </mxCell>
        <mxCell id="H1EW1uGaFYr-aLYh5dV3-9" value="Internet Gateway" style="sketch=0;outlineConnect=0;fontColor=#232F3E;gradientColor=none;fillColor=#4D27AA;strokeColor=none;dashed=0;verticalLabelPosition=bottom;verticalAlign=top;align=center;html=1;fontSize=12;fontStyle=0;aspect=fixed;pointerEvents=1;shape=mxgraph.aws4.nat_gateway;" parent="1" vertex="1">
          <mxGeometry x="621.49" y="213" width="68" height="68" as="geometry" />
        </mxCell>
        <mxCell id="H1EW1uGaFYr-aLYh5dV3-22" style="edgeStyle=orthogonalEdgeStyle;rounded=0;orthogonalLoop=1;jettySize=auto;html=1;" parent="1" source="H1EW1uGaFYr-aLYh5dV3-9" target="H1EW1uGaFYr-aLYh5dV3-19" edge="1">
          <mxGeometry relative="1" as="geometry" />
        </mxCell>
        <mxCell id="H1EW1uGaFYr-aLYh5dV3-59" style="edgeStyle=orthogonalEdgeStyle;rounded=0;orthogonalLoop=1;jettySize=auto;html=1;entryX=0.5;entryY=0;entryDx=0;entryDy=0;entryPerimeter=0;" parent="1" source="H1EW1uGaFYr-aLYh5dV3-58" target="H1EW1uGaFYr-aLYh5dV3-11" edge="1">
          <mxGeometry relative="1" as="geometry" />
        </mxCell>
        <mxCell id="H1EW1uGaFYr-aLYh5dV3-60" style="edgeStyle=orthogonalEdgeStyle;rounded=0;orthogonalLoop=1;jettySize=auto;html=1;" parent="1" source="H1EW1uGaFYr-aLYh5dV3-58" target="H1EW1uGaFYr-aLYh5dV3-9" edge="1">
          <mxGeometry relative="1" as="geometry" />
        </mxCell>
        <mxCell id="H1EW1uGaFYr-aLYh5dV3-58" value="User/ Client" style="points=[[0.35,0,0],[0.98,0.51,0],[1,0.71,0],[0.67,1,0],[0,0.795,0],[0,0.65,0]];verticalLabelPosition=bottom;sketch=0;html=1;verticalAlign=top;aspect=fixed;align=center;pointerEvents=1;shape=mxgraph.cisco19.user;fillColor=#005073;strokeColor=none;" parent="1" vertex="1">
          <mxGeometry x="620.49" y="40" width="71" height="71" as="geometry" />
        </mxCell>
        <mxCell id="Qzojy6YNlc8GHkLwXuoG-1" value="db.r3.2xlarge" style="text;html=1;align=center;verticalAlign=middle;resizable=0;points=[];autosize=1;strokeColor=none;fillColor=none;" vertex="1" parent="1">
          <mxGeometry x="370" y="880" width="90" height="30" as="geometry" />
        </mxCell>
      </root>
    </mxGraphModel>
  </diagram>
  <diagram id="aSgdBsmFDDHeTImMcOlA" name="Page-2">
    <mxGraphModel dx="1775" dy="949" grid="1" gridSize="10" guides="1" tooltips="1" connect="1" arrows="1" fold="1" page="1" pageScale="1" pageWidth="1654" pageHeight="1169" math="0" shadow="0">
      <root>
        <mxCell id="0" />
        <mxCell id="1" parent="0" />
        <mxCell id="iFT8d7ArhzcAzeUQ7ZzF-3" value="" style="rounded=1;arcSize=10;dashed=0;fillColor=none;gradientColor=none;strokeWidth=2;" parent="1" vertex="1">
          <mxGeometry x="180" y="80" width="1200" height="500" as="geometry" />
        </mxCell>
        <mxCell id="SXS4WKh-lz_kpG7cREE4-5" style="edgeStyle=orthogonalEdgeStyle;rounded=0;orthogonalLoop=1;jettySize=auto;html=1;" parent="1" source="SXS4WKh-lz_kpG7cREE4-1" target="SXS4WKh-lz_kpG7cREE4-2" edge="1">
          <mxGeometry relative="1" as="geometry" />
        </mxCell>
        <mxCell id="SXS4WKh-lz_kpG7cREE4-7" style="edgeStyle=orthogonalEdgeStyle;rounded=0;orthogonalLoop=1;jettySize=auto;html=1;" parent="1" source="SXS4WKh-lz_kpG7cREE4-1" target="SXS4WKh-lz_kpG7cREE4-6" edge="1">
          <mxGeometry relative="1" as="geometry" />
        </mxCell>
        <mxCell id="SXS4WKh-lz_kpG7cREE4-1" value="CloudFront Distributrion" style="sketch=0;points=[[0,0,0],[0.25,0,0],[0.5,0,0],[0.75,0,0],[1,0,0],[0,1,0],[0.25,1,0],[0.5,1,0],[0.75,1,0],[1,1,0],[0,0.25,0],[0,0.5,0],[0,0.75,0],[1,0.25,0],[1,0.5,0],[1,0.75,0]];outlineConnect=0;fontColor=#232F3E;gradientColor=#945DF2;gradientDirection=north;fillColor=#5A30B5;strokeColor=#ffffff;dashed=0;verticalLabelPosition=bottom;verticalAlign=top;align=center;html=1;fontSize=12;fontStyle=0;aspect=fixed;shape=mxgraph.aws4.resourceIcon;resIcon=mxgraph.aws4.cloudfront;" parent="1" vertex="1">
          <mxGeometry x="440" y="240" width="90" height="90" as="geometry" />
        </mxCell>
        <mxCell id="SXS4WKh-lz_kpG7cREE4-4" style="edgeStyle=orthogonalEdgeStyle;rounded=0;orthogonalLoop=1;jettySize=auto;html=1;entryX=0;entryY=0.5;entryDx=0;entryDy=0;entryPerimeter=0;" parent="1" source="SXS4WKh-lz_kpG7cREE4-2" target="SXS4WKh-lz_kpG7cREE4-3" edge="1">
          <mxGeometry relative="1" as="geometry" />
        </mxCell>
        <mxCell id="SXS4WKh-lz_kpG7cREE4-2" value="Lambda@Edge" style="sketch=0;outlineConnect=0;fontColor=#232F3E;gradientColor=none;fillColor=#D45B07;strokeColor=none;dashed=0;verticalLabelPosition=bottom;verticalAlign=top;align=center;html=1;fontSize=12;fontStyle=0;aspect=fixed;pointerEvents=1;shape=mxgraph.aws4.lambda_function;" parent="1" vertex="1">
          <mxGeometry x="450" y="410" width="70" height="70" as="geometry" />
        </mxCell>
        <mxCell id="SXS4WKh-lz_kpG7cREE4-3" value="Cognito" style="sketch=0;points=[[0,0,0],[0.25,0,0],[0.5,0,0],[0.75,0,0],[1,0,0],[0,1,0],[0.25,1,0],[0.5,1,0],[0.75,1,0],[1,1,0],[0,0.25,0],[0,0.5,0],[0,0.75,0],[1,0.25,0],[1,0.5,0],[1,0.75,0]];outlineConnect=0;fontColor=#232F3E;gradientColor=#F54749;gradientDirection=north;fillColor=#C7131F;strokeColor=#ffffff;dashed=0;verticalLabelPosition=bottom;verticalAlign=top;align=center;html=1;fontSize=12;fontStyle=0;aspect=fixed;shape=mxgraph.aws4.resourceIcon;resIcon=mxgraph.aws4.cognito;" parent="1" vertex="1">
          <mxGeometry x="694" y="406" width="78" height="78" as="geometry" />
        </mxCell>
        <mxCell id="SXS4WKh-lz_kpG7cREE4-9" style="edgeStyle=orthogonalEdgeStyle;rounded=0;orthogonalLoop=1;jettySize=auto;html=1;entryX=0;entryY=0.5;entryDx=0;entryDy=0;entryPerimeter=0;" parent="1" source="SXS4WKh-lz_kpG7cREE4-6" target="SXS4WKh-lz_kpG7cREE4-8" edge="1">
          <mxGeometry relative="1" as="geometry" />
        </mxCell>
        <mxCell id="SXS4WKh-lz_kpG7cREE4-6" value="API Gateway" style="sketch=0;points=[[0,0,0],[0.25,0,0],[0.5,0,0],[0.75,0,0],[1,0,0],[0,1,0],[0.25,1,0],[0.5,1,0],[0.75,1,0],[1,1,0],[0,0.25,0],[0,0.5,0],[0,0.75,0],[1,0.25,0],[1,0.5,0],[1,0.75,0]];outlineConnect=0;fontColor=#232F3E;gradientColor=#FF4F8B;gradientDirection=north;fillColor=#BC1356;strokeColor=#ffffff;dashed=0;verticalLabelPosition=bottom;verticalAlign=top;align=center;html=1;fontSize=12;fontStyle=0;aspect=fixed;shape=mxgraph.aws4.resourceIcon;resIcon=mxgraph.aws4.api_gateway;" parent="1" vertex="1">
          <mxGeometry x="694" y="246" width="78" height="78" as="geometry" />
        </mxCell>
        <mxCell id="SXS4WKh-lz_kpG7cREE4-11" style="edgeStyle=orthogonalEdgeStyle;rounded=0;orthogonalLoop=1;jettySize=auto;html=1;" parent="1" source="SXS4WKh-lz_kpG7cREE4-8" target="SXS4WKh-lz_kpG7cREE4-10" edge="1">
          <mxGeometry relative="1" as="geometry" />
        </mxCell>
        <mxCell id="SXS4WKh-lz_kpG7cREE4-13" style="edgeStyle=orthogonalEdgeStyle;rounded=0;orthogonalLoop=1;jettySize=auto;html=1;entryX=0;entryY=0.5;entryDx=0;entryDy=0;entryPerimeter=0;" parent="1" source="SXS4WKh-lz_kpG7cREE4-8" target="SXS4WKh-lz_kpG7cREE4-12" edge="1">
          <mxGeometry relative="1" as="geometry" />
        </mxCell>
        <mxCell id="SXS4WKh-lz_kpG7cREE4-8" value="Lambda" style="sketch=0;points=[[0,0,0],[0.25,0,0],[0.5,0,0],[0.75,0,0],[1,0,0],[0,1,0],[0.25,1,0],[0.5,1,0],[0.75,1,0],[1,1,0],[0,0.25,0],[0,0.5,0],[0,0.75,0],[1,0.25,0],[1,0.5,0],[1,0.75,0]];outlineConnect=0;fontColor=#232F3E;gradientColor=#F78E04;gradientDirection=north;fillColor=#D05C17;strokeColor=#ffffff;dashed=0;verticalLabelPosition=bottom;verticalAlign=top;align=center;html=1;fontSize=12;fontStyle=0;aspect=fixed;shape=mxgraph.aws4.resourceIcon;resIcon=mxgraph.aws4.lambda;" parent="1" vertex="1">
          <mxGeometry x="953" y="246" width="78" height="78" as="geometry" />
        </mxCell>
        <mxCell id="SXS4WKh-lz_kpG7cREE4-10" value="S3 Bucket" style="sketch=0;points=[[0,0,0],[0.25,0,0],[0.5,0,0],[0.75,0,0],[1,0,0],[0,1,0],[0.25,1,0],[0.5,1,0],[0.75,1,0],[1,1,0],[0,0.25,0],[0,0.5,0],[0,0.75,0],[1,0.25,0],[1,0.5,0],[1,0.75,0]];outlineConnect=0;fontColor=#232F3E;gradientColor=#60A337;gradientDirection=north;fillColor=#277116;strokeColor=#ffffff;dashed=0;verticalLabelPosition=bottom;verticalAlign=top;align=center;html=1;fontSize=12;fontStyle=0;aspect=fixed;shape=mxgraph.aws4.resourceIcon;resIcon=mxgraph.aws4.s3;" parent="1" vertex="1">
          <mxGeometry x="1193" y="246" width="78" height="78" as="geometry" />
        </mxCell>
        <mxCell id="SXS4WKh-lz_kpG7cREE4-12" value="&lt;span style=&quot;background-color: rgb(255, 255, 255); color: rgb(11, 11, 11); font-family: &amp;quot;Open Sans&amp;quot;, sans-serif; font-size: medium; text-align: start;&quot;&gt;DynamoDB&lt;/span&gt;" style="sketch=0;points=[[0,0,0],[0.25,0,0],[0.5,0,0],[0.75,0,0],[1,0,0],[0,1,0],[0.25,1,0],[0.5,1,0],[0.75,1,0],[1,1,0],[0,0.25,0],[0,0.5,0],[0,0.75,0],[1,0.25,0],[1,0.5,0],[1,0.75,0]];outlineConnect=0;fontColor=#232F3E;gradientColor=#4D72F3;gradientDirection=north;fillColor=#3334B9;strokeColor=#ffffff;dashed=0;verticalLabelPosition=bottom;verticalAlign=top;align=center;html=1;fontSize=12;fontStyle=0;aspect=fixed;shape=mxgraph.aws4.resourceIcon;resIcon=mxgraph.aws4.dynamodb;" parent="1" vertex="1">
          <mxGeometry x="1193" y="90" width="78" height="78" as="geometry" />
        </mxCell>
        <mxCell id="SXS4WKh-lz_kpG7cREE4-15" style="edgeStyle=orthogonalEdgeStyle;rounded=0;orthogonalLoop=1;jettySize=auto;html=1;entryX=0;entryY=0.5;entryDx=0;entryDy=0;entryPerimeter=0;" parent="1" source="SXS4WKh-lz_kpG7cREE4-14" target="SXS4WKh-lz_kpG7cREE4-1" edge="1">
          <mxGeometry relative="1" as="geometry" />
        </mxCell>
        <mxCell id="SXS4WKh-lz_kpG7cREE4-14" value="" style="sketch=0;points=[[0,0,0],[0.25,0,0],[0.5,0,0],[0.75,0,0],[1,0,0],[0,1,0],[0.25,1,0],[0.5,1,0],[0.75,1,0],[1,1,0],[0,0.25,0],[0,0.5,0],[0,0.75,0],[1,0.25,0],[1,0.5,0],[1,0.75,0]];outlineConnect=0;fontColor=#232F3E;gradientColor=#945DF2;gradientDirection=north;fillColor=#5A30B5;strokeColor=#ffffff;dashed=0;verticalLabelPosition=bottom;verticalAlign=top;align=center;html=1;fontSize=12;fontStyle=0;aspect=fixed;shape=mxgraph.aws4.resourceIcon;resIcon=mxgraph.aws4.route_53;" parent="1" vertex="1">
          <mxGeometry x="230" y="246" width="78" height="78" as="geometry" />
        </mxCell>
        <mxCell id="iFT8d7ArhzcAzeUQ7ZzF-2" style="edgeStyle=orthogonalEdgeStyle;rounded=0;orthogonalLoop=1;jettySize=auto;html=1;entryX=0;entryY=0.5;entryDx=0;entryDy=0;entryPerimeter=0;" parent="1" source="iFT8d7ArhzcAzeUQ7ZzF-1" target="SXS4WKh-lz_kpG7cREE4-14" edge="1">
          <mxGeometry relative="1" as="geometry" />
        </mxCell>
        <mxCell id="iFT8d7ArhzcAzeUQ7ZzF-1" value="User/ Client" style="points=[[0.35,0,0],[0.98,0.51,0],[1,0.71,0],[0.67,1,0],[0,0.795,0],[0,0.65,0]];verticalLabelPosition=bottom;sketch=0;html=1;verticalAlign=top;aspect=fixed;align=center;pointerEvents=1;shape=mxgraph.cisco19.user;fillColor=#005073;strokeColor=none;" parent="1" vertex="1">
          <mxGeometry x="30" y="249.5" width="71" height="71" as="geometry" />
        </mxCell>
        <mxCell id="iFT8d7ArhzcAzeUQ7ZzF-4" value="" style="dashed=0;html=1;shape=mxgraph.aws3.cloud;fillColor=#F58536;gradientColor=none;dashed=0;" parent="1" vertex="1">
          <mxGeometry x="180" y="60" width="52" height="36" as="geometry" />
        </mxCell>
      </root>
    </mxGraphModel>
  </diagram>
</mxfile>
